<?xml version="1.0" encoding="UTF-8" standalone="no"?>
<!-- Created with Inkscape (http://www.inkscape.org/) -->

<svg
   version="1.1"
   id="svg1"
   width="1062.4567"
   height="311.65491"
   viewBox="0 0 1062.4567 311.65492"
   xmlns="http://www.w3.org/2000/svg"
   xmlns:svg="http://www.w3.org/2000/svg">
  <defs
     id="defs1" />
  <g
     id="g1"
     transform="translate(-139.24135,-431.55626)">
    <path
       style="fill:#000000"
       d="m 260.88781,741.32926 c -15.29486,-2.7725 -27.95309,-7.06477 -41.86936,-14.19746 -49.45451,-25.34758 -79.7771,-73.66172 -79.7771,-127.11191 0,-40.86334 15.37201,-75.16846 47.53637,-106.08506 5.755,-5.53174 12.15245,-11.34863 14.21658,-12.92643 3.17098,-2.42387 3.5278,-3.28941 2.30106,-5.5816 -3.97758,-7.43218 2.4989,-13.6045 23.29059,-22.19676 28.03677,-11.58633 62.55967,-20.18619 85.81958,-21.37818 12.06552,-0.61831 14.8576,-0.36484 18.80628,1.70728 6.88356,3.61224 7.82035,8.57937 3.59224,19.04711 -3.36597,8.3333 -3.36731,8.35371 -0.59806,9.07788 1.52652,0.39919 6.13396,2.5056 10.23875,4.6809 38.32659,20.31086 65.55839,50.98378 77.79677,87.6275 5.92802,17.74947 6.97392,24.88196 6.84313,46.66667 -0.10608,17.66785 -0.61818,22.52765 -3.52921,33.49184 -17.11276,64.45394 -75.73893,109.64089 -141.48874,109.05448 -7.42061,-0.0662 -17.8511,-0.9105 -23.17888,-1.87626 z m 76.82065,-75.33074 c 0.47642,0.003 4.52606,3.27092 8.9992,7.26138 l 8.133,7.25539 4.99739,-5.11779 4.99739,-5.11779 -8.79705,-7.04952 c -4.83838,-3.87723 -8.79705,-7.37298 -8.79705,-7.76833 0,-0.39535 3.11484,-3.87283 6.92187,-7.72775 3.80703,-3.85492 6.65703,-7.25868 6.33334,-7.56392 -0.97042,-0.91506 -56.18583,-21.03456 -56.50408,-20.58906 -0.16164,0.22627 4.15927,14.04844 9.60201,30.71594 l 9.89589,30.30454 6.67594,-7.30454 c 3.67177,-4.0175 7.06574,-7.30185 7.54215,-7.29855 z m 42.19751,-20.08562 c 8.02457,-15.7837 9.31876,-22.18728 9.28069,-45.92037 -0.0373,-23.28143 -1.48708,-31.16672 -8.62398,-46.90679 -8.98242,-19.81032 -29.02419,-42.73756 -35.98801,-41.16932 -1.83333,0.41286 -6.91815,1.3837 -11.29958,2.15742 -4.38144,0.77371 -8.11053,1.55103 -8.28687,1.72737 -0.17634,0.17634 1.19582,4.07496 3.04925,8.66358 4.21734,10.4411 3.88664,13.94507 -1.40201,14.85507 -3.84499,0.66159 -3.9302,0.84751 -3.56263,7.77286 0.3257,6.1366 0.0177,7.18889 -2.27968,7.78968 -2.32735,0.60862 -2.56915,1.50498 -1.95273,7.23883 0.94641,8.80352 -1.81881,13.20464 -8.29648,13.20464 -4.96281,0 -5.42813,0.80527 -3.23823,5.60392 1.0591,2.32075 4.03787,3.85818 12.29551,6.34608 5.99379,1.80584 14.81482,5.16622 19.60229,7.46752 10.47945,5.03738 12.93231,8.79361 19.38323,29.68273 2.41748,7.82819 6.25326,18.13307 8.52396,22.89974 2.27069,4.76667 4.14809,9.56667 4.17199,10.66667 0.0638,2.93537 3.28027,-1.57034 8.62328,-12.07963 z M 179.76718,601.74129 c 4.25678,-3.53305 38.25278,-22.40966 40.38023,-22.42152 0.60166,-0.003 3.89564,-5.55336 7.31994,-12.33333 l 6.22601,-12.32724 -2.45,-15.33333 c -1.3475,-8.43334 -4.03977,-19.94273 -5.98282,-25.57643 -4.12525,-11.96079 -2.85355,-12.2032 -18.76215,3.57643 -23.11387,22.92648 -34.01369,48.71793 -33.8091,79.99999 0.0731,11.17422 0.41299,13.87293 1.42747,11.33334 0.73236,-1.83334 3.27505,-4.94639 5.65042,-6.91791 z M 504.19812,709.4096 c -24.61369,-8.78118 -31.64422,-40.3689 -13.21357,-59.36778 7.16751,-7.38849 12.5743,-9.36775 25.59011,-9.36775 12.52424,0 17.9444,1.94326 25.31113,9.07467 5.02869,4.86806 6.95312,7.98617 8.73408,14.15166 4.39783,15.22486 -0.75696,33.22136 -11.56424,40.37328 -10.04971,6.65058 -24.6019,8.79471 -34.85751,5.13592 z m 24.06014,-14.97995 c 7.08234,-5.28773 8.98307,-9.30201 8.98307,-18.97202 0,-7.87033 -0.48455,-9.64128 -3.84243,-14.0437 -11.51214,-15.0932 -35.24988,-9.051 -37.75279,9.60958 -1.52272,11.35273 3.19202,21.08212 12.19578,25.16737 5.39638,2.44849 16.0035,1.53346 20.41637,-1.76123 z m 74.20995,15.01467 c -7.73104,-2.42052 -13.48249,-7.09405 -16.56402,-13.45965 -2.36637,-4.88825 -2.66287,-8.23753 -2.66287,-30.07978 v -24.57903 h 6.66667 6.66667 v 22.2706 c 0,12.99722 0.59315,23.5459 1.4245,25.33333 2.14356,4.60876 7.56099,8.01776 13.87185,8.72909 6.79503,0.76589 10.64283,-1.0761 14.10334,-6.75145 2.2961,-3.76568 2.5909,-6.82295 2.59532,-26.9149 l 0.005,-22.66667 h 6.66667 6.66667 l -0.0219,25.33333 c -0.0206,23.78744 -0.2049,25.65638 -3.0203,30.62724 -6.61345,11.67667 -21.76725,16.7385 -36.39754,12.15789 z m 167.11854,0.0655 c -7.57253,-2.826 -11.32413,-5.70572 -15.34795,-11.78108 -3.62801,-5.47777 -3.66841,-5.78319 -4.09524,-30.96762 l -0.43109,-25.43529 h 6.76442 6.76442 v 21.70949 c 0,25.34431 1.18854,29.91854 8.57586,33.00516 7.49762,3.13271 13.42442,2.50939 18.40311,-1.93544 l 4.35436,-3.88745 0.66667,-24.44588 0.66667,-24.44588 h 6.33549 6.33549 l -0.002,24.37616 c -0.002,25.32822 -0.93453,30.6882 -6.38634,36.71692 -6.45451,7.13751 -22.89666,10.71348 -32.60371,7.09091 z m -93.0121,-33.85066 v -34.33333 h 6.66667 6.66666 v 28.33333 28.33333 h 16.66667 16.66666 v 6 6 h -23.33333 -23.33333 z m 4.6114,-68.85984 c -22.27237,-5.41094 -37.43846,-21.96733 -40.95934,-44.71416 -4.52115,-29.2091 11.56388,-55.08251 38.5404,-61.99378 20.39226,-5.22441 42.46523,0.23736 55.68906,13.77979 l 4.82,4.93614 -8.31214,6.77983 -8.31214,6.77983 -5.81767,-5.12092 c -7.47826,-6.58263 -13.00435,-8.32973 -24.32386,-7.69012 -7.52702,0.42531 -10.16595,1.22839 -14.8467,4.51815 -21.14744,14.86298 -18.38882,49.27191 4.81651,60.0774 8.4407,3.93038 20.33413,4.22114 28.09448,0.68681 5.19393,-2.3655 15.33333,-12.18504 15.33333,-14.84963 0,-0.80319 -5.80603,-1.32949 -14.66666,-1.32949 h -14.66667 v -9.7259 -9.72589 l 26.16361,0.0592 26.16361,0.0592 -0.69112,10.66666 c -0.91666,14.14733 -4.83388,24.15143 -12.7011,32.43708 -13.03702,13.73038 -34.0625,19.29206 -54.3236,14.36974 z m 354.15025,0.30641 c -6.0933,-1.74999 -15.2329,-8.15743 -18.8186,-13.19311 -1.5954,-2.24051 -2.6853,-4.21807 -2.4219,-4.39458 0.2633,-0.1765 3.663,-2.92648 7.5548,-6.11107 l 7.0761,-5.79014 4.4293,4.29308 c 8.0618,7.81375 18.5672,6.68189 24.0122,-2.58706 2.5893,-4.40768 2.7397,-6.73123 2.7397,-42.32887 v -37.66519 l 11.7524,-0.001 11.7524,-10e-4 -0.4191,41.66666 c -0.4063,40.3984 -0.5127,41.85686 -3.4969,47.91524 -7.6322,15.49435 -26.5006,23.26981 -44.1604,18.19799 z M 479.24133,553.23574 v -54.09013 l 30.33333,0.45492 c 27.85912,0.41781 30.95342,0.7029 37.93551,3.49513 14.78838,5.91408 25.97963,19.81582 29.04438,36.07886 5.00198,26.54287 -4.77897,50.50626 -24.95544,61.14094 -11.13378,5.86843 -18.80461,7.0104 -47.09008,7.0104 h -25.2677 z m 53.69868,31.42168 c 13.532,-5.06297 21.52268,-16.69598 21.52154,-31.33155 -0.002,-23.16854 -15.13406,-35.33333 -43.95252,-35.33333 h -8.60104 v 34.66666 34.66666 h 11.94999 c 8.68797,0 13.89683,-0.7284 19.08203,-2.66844 z m 64.96798,-31.33155 v -54 h 11.33333 11.33333 v 54 53.99999 h -11.33333 -11.33333 z m 170.66666,0 v -54 h 11.33333 11.33333 v 54 53.99999 h -11.33333 -11.33333 z m 47.99999,0 v -54 h 25.758 c 18.80419,0 27.53312,0.52959 32.33333,1.9617 14.38508,4.29168 23.242,16.92253 23.242,33.1454 0,12.16644 -2.03666,18.46839 -8.24971,25.52679 -8.29116,9.41926 -14.89132,11.83519 -34.08362,12.476 l -16.33333,0.54536 v 17.17237 17.17237 h -11.33333 -11.33334 z m 48.37616,-2.48265 c 7.32631,-3.10089 9.62384,-6.81318 9.62384,-15.54992 0,-6.28566 -0.5884,-8.37892 -3.10966,-11.06267 -3.82758,-4.07428 -11.97239,-6.23809 -23.48077,-6.23809 h -8.7429 v 17.33333 17.33333 h 10.70949 c 6.0482,0 12.57693,-0.7904 15,-1.81598 z m 32.96875,56.19759 c 0.006,-0.20989 9.18546,-24.38161 20.39798,-53.71494 l 20.38639,-53.33333 12.68729,-0.37863 12.68728,-0.37862 19.48064,51.71195 c 10.7143,28.44158 19.89877,52.78456 20.40997,54.09553 0.8598,2.20514 -0.048,2.35485 -12.12287,2 l -13.05217,-0.38357 -3.5558,-10.66667 -3.5558,-10.66667 H 951.2413 930.80009 l -3.55576,10.66667 -3.55576,10.66667 -12.8903,0.38161 c -7.08966,0.20989 -12.88509,0.20989 -12.87872,0 z m 66.65508,-41.99983 c 0,-1.97019 -12.62843,-39.04837 -13.29892,-39.04681 -0.38559,9e-4 -3.72987,9.0009 -7.43173,20 l -6.73066,19.99836 h 13.73066 c 7.55186,0 13.73065,-0.4282 13.73065,-0.95155 z m 131.86517,35.95155 c 1.3712,-3.48333 10.3166,-26.73333 19.8788,-51.66666 9.5623,-24.93333 17.7958,-46.38333 18.2969,-47.66667 0.7764,-1.98842 2.7344,-2.33333 13.246,-2.33333 h 12.335 l 7.0234,18.33333 c 3.8629,10.08333 9.8892,25.83333 13.3918,35 3.5026,9.16667 9.6799,25.23782 13.7273,35.71368 l 7.359,19.04702 -12.7444,-0.38035 -12.7443,-0.38035 -3.9909,-11 -3.9909,-11 h -20.3145 -20.3145 l -2.9149,8.33333 c -5.5092,15.75032 -3.7237,14.33333 -18.061,14.33333 h -12.6758 z m 68.1348,-35.36832 c 0,-1.66925 -2.9027,-11.71925 -6.4503,-22.33333 -6.272,-18.76494 -6.5544,-19.29834 -10.2164,-19.29834 -3.662,0 -3.9444,0.5334 -10.2164,19.29834 -3.5476,10.61408 -6.4503,20.66408 -6.4503,22.33333 0,2.9959 0.2147,3.03499 16.6667,3.03499 16.452,0 16.6667,-0.0391 16.6667,-3.03499 z"
       id="path1" />
  </g>
</svg>
