<?xml version="1.0" encoding="UTF-8" standalone="no"?>
<!-- Created with Inkscape (http://www.inkscape.org/) -->

<svg
   version="1.1"
   id="svg1"
   width="288"
   height="96"
   viewBox="0 0 288 96"
   xmlns="http://www.w3.org/2000/svg"
   xmlns:svg="http://www.w3.org/2000/svg">
  <defs
     id="defs1" />
  <g
     id="g1">
    <g
       id="g2">
      <path
         style="fill:#000000"
         d="M 212.16,46.72 V 26.24 h 8.8 8.8 v 15.2 15.2 h 15.04 15.04 v 5.28 5.28 H 236 212.16 Z"
         id="path32" />
      <path
         style="fill:#000000"
         d="M 146.56,46.714018 V 26.200489 l 22.16,0.123844 c 19.42513,0.10856 22.40807,0.189815 24.17007,0.658391 5.2663,1.400488 8.24493,4.348867 8.6247,8.537114 0.3511,3.871996 -1.6469,7.421459 -5.1019,9.063553 l -1.6024,0.761587 1.09472,0.177649 c 2.95811,0.480034 5.89451,2.636646 7.19447,5.283904 0.78897,1.606681 0.89886,2.189707 0.8884,4.713469 -0.009,2.234417 -0.16426,3.215392 -0.69148,4.376214 -1.42419,3.13576 -4.25831,5.304531 -8.57658,6.563118 -1.73344,0.505223 -4.16644,0.569731 -25.04,0.663905 l -23.12,0.10431 z m 39.17463,9.950202 c 0.60205,-0.565876 0.82537,-1.09994 0.82537,-1.973828 0,-1.663252 -0.24498,-2.150528 -1.39878,-2.782227 -0.87488,-0.478995 -2.30345,-0.560792 -11.32122,-0.648233 l -10.32,-0.100068 v 3.232332 3.232333 l 10.69463,-0.09226 10.69463,-0.09227 z m -2.03001,-15.679605 c 1.70044,-1.700445 1.06653,-4.17146 -1.23405,-4.810394 C 181.78368,35.983455 177.52322,35.842814 172.4,35.841785 L 163.52,35.84 v 3.04 3.04 h 9.62462 9.62461 z"
         id="path31" />
      <path
         style="fill:#000000"
         d="M 107.36,66.713859 C 100.84305,65.66036 96.720735,63.792521 93.277569,60.33305 c -1.910343,-1.91939 -4.255946,-5.461339 -3.87137,-5.845916 0.107603,-0.107603 13.271201,-1.668897 14.178791,-1.681702 0.21174,-0.003 0.628,0.506696 0.92503,1.132631 1.30871,2.757895 4.59871,3.981937 10.70274,3.981937 6.35518,0 8.94724,-0.834349 8.94724,-2.88 0,-2.021061 -2.02323,-2.679892 -9.80539,-3.192963 -12.22697,-0.806113 -16.608375,-1.929268 -20.107231,-5.1544 -2.099477,-1.93523 -2.885418,-3.989321 -2.866851,-7.492637 0.02235,-4.21775 1.312091,-6.654157 4.704205,-8.88658 3.334858,-2.194741 7.340637,-3.277852 13.840847,-3.74239 7.67799,-0.548707 14.67323,0.384447 19.19442,2.560509 3.72723,1.793926 6.91655,4.996741 8.2856,8.320656 0.46417,1.126969 0.46238,1.132431 -0.38964,1.183403 -0.47078,0.02817 -3.79778,0.305229 -7.39333,0.615698 -5.70689,0.49278 -6.55668,0.505051 -6.68941,0.0966 -0.0836,-0.257341 -0.67625,-0.995278 -1.31695,-1.63986 -1.69102,-1.701267 -4.0337,-2.320804 -8.65627,-2.289205 -4.54272,0.03105 -7.01842,0.721959 -7.49431,2.091482 -0.23885,0.687363 -0.17857,1.007164 0.28676,1.521349 0.98001,1.082892 1.92534,1.234645 14.08755,2.26145 4.87769,0.411804 7.59243,0.938311 10.52025,2.040338 5.49738,2.069207 8.00874,5.451023 7.99286,10.763201 -0.007,2.232725 -0.15638,3.060356 -0.813,4.494602 -1.90268,4.155985 -5.40469,6.45763 -11.94011,7.847449 -3.30343,0.702506 -14.54718,0.872124 -18.24,0.27516 z"
         id="path30" />
      <path
         style="fill:#000000"
         d="m 28.16,46.697289 v -20.50271 l 20.72,0.121701 c 19.986218,0.117391 20.807338,0.145938 23.186198,0.806089 5.204792,1.444367 8.199205,3.674601 9.986102,7.437631 0.917679,1.932542 0.9877,2.329544 0.9877,5.6 0,3.201679 -0.08317,3.700065 -0.919733,5.511159 -1.011441,2.189702 -3.418619,4.71659 -5.503747,5.777451 C 75.925434,51.800217 74.352,52.421444 73.12,52.829115 70.955795,53.545254 70.444182,53.574308 58,53.687746 l -12.88,0.11741 V 60.502578 67.2 H 36.64 28.16 Z M 64.868241,43.757863 C 65.618911,43.347474 65.99199,42.84104 66.25028,41.881824 66.965948,39.224035 65.815975,36.795195 63.635455,36.359091 63.087955,36.249591 58.626,36.16 53.72,36.16 H 44.8 v 4.177534 4.177534 l 9.52,-0.09753 c 8.358652,-0.08564 9.645436,-0.166109 10.548241,-0.659671 z"
         id="path29" />
      <path
         style="fill:#000000"
         d="m 89.28,92 c 0,-0.777143 0.064,-0.8 2.24,-0.8 2.176,0 2.24,0.02286 2.24,0.8 0,0.777143 -0.064,0.8 -2.24,0.8 -2.176,0 -2.24,-0.02286 -2.24,-0.8 z"
         id="path28" />
      <path
         style="fill:#000000"
         d="m 251.52041,91.76 4.2e-4,-4.24 h -1.36042 c -1.2462,0 -1.36891,-0.07388 -1.46167,-0.88 l -0.10125,-0.88 H 252.29874 256 v 1.001617 c 0,0.997814 -0.005,1.001 -1.44,0.839308 l -1.44,-0.162309 V 91.719308 96 h -0.8 -0.8 z"
         id="path27" />
      <path
         style="fill:#000000"
         d="m 240.64,95.917458 c 0,-0.0454 0.792,-2.299229 1.76,-5.008514 0.968,-2.709286 1.76,-4.976142 1.76,-5.037459 0,-0.06132 0.36,-0.111485 0.8,-0.111485 0.44,0 0.8,0.06111 0.8,0.135792 0,0.07469 0.78904,2.387589 1.75343,5.139785 l 1.75342,5.003992 -1.02333,-0.09978 c -0.84551,-0.08245 -1.07484,-0.280503 -1.31972,-1.139784 -0.28627,-1.004527 -0.35399,-1.04 -1.98527,-1.04 -1.64643,0 -1.69819,0.02816 -2.05853,1.12 -0.31029,0.940186 -0.51978,1.12 -1.30482,1.12 -0.51435,0 -0.93518,-0.03714 -0.93518,-0.08254 z M 245.89585,91.44 c -0.125,-0.396 -0.39472,-1.20531 -0.59939,-1.798467 l -0.37211,-1.078468 -0.405,1.351775 c -0.22275,0.743477 -0.48213,1.552787 -0.57641,1.798468 -0.12752,0.33231 0.12967,0.446692 1.00439,0.446692 1.07335,0 1.156,-0.06273 0.94852,-0.72 z"
         id="path26" />
      <path
         style="fill:#000000"
         d="m 237.44,90.88 v -5.12 h 0.8 0.8 V 90.88 96 h -0.8 -0.8 z"
         id="path25" />
      <path
         style="fill:#000000"
         d="m 231.36,91.751544 v -4.248457 l -1.28,0.122068 c -1.24472,0.118703 -1.28,0.09468 -1.28,-0.871544 V 85.76 h 3.52 3.52 v 0.993611 c 0,0.966225 -0.0353,0.990247 -1.28,0.871544 l -1.28,-0.122068 V 91.751544 96 h -0.96 -0.96 z"
         id="path24" />
      <path
         style="fill:#000000"
         d="m 223.68,91.751544 v -4.248457 l -1.28,0.122068 c -1.24472,0.118703 -1.28,0.09468 -1.28,-0.871544 V 85.76 h 3.52 3.52 v 0.993611 c 0,0.966225 -0.0353,0.990247 -1.28,0.871544 L 225.6,87.503087 V 91.751544 96 h -0.96 -0.96 z"
         id="path23" />
      <path
         style="fill:#000000"
         d="m 213.12,95.754848 c 0,-0.134834 0.72,-2.256516 1.6,-4.714848 0.88,-2.458332 1.6,-4.652014 1.6,-4.874848 0,-0.236836 0.39882,-0.405152 0.96,-0.405152 0.528,0 0.96,0.160693 0.96,0.357095 0,0.196402 0.72,2.367716 1.6,4.825141 0.88,2.457426 1.6,4.600733 1.6,4.762906 0,0.162172 -0.41117,0.294858 -0.91371,0.294858 -0.75633,0 -0.96508,-0.179126 -1.21198,-1.04 -0.28934,-1.008881 -0.35021,-1.04 -2.03431,-1.04 -1.6841,0 -1.74497,0.03112 -2.03431,1.04 -0.2469,0.860874 -0.45565,1.04 -1.21198,1.04 C 213.53117,96 213.12,95.889681 213.12,95.754848 Z M 217.9895,90.56 c -0.5794,-1.811833 -0.86399,-1.991294 -1.1418,-0.72 -0.10576,0.484 -0.28455,1.204 -0.39732,1.6 -0.18488,0.649264 -0.0942,0.72 0.92288,0.72 h 1.1279 z"
         id="path22" />
      <path
         style="fill:#000000"
         d="m 205.44,90.88 v -5.12 h 0.96 0.96 v 4.32 4.32 h 2.4 c 2.34667,0 2.4,0.01778 2.4,0.8 V 96 h -3.36 -3.36 z"
         id="path21" />
      <path
         style="fill:#000000"
         d="m 201.28,90.88 v -5.12 h 0.96 0.96 V 90.88 96 h -0.96 -0.96 z"
         id="path20" />
      <path
         style="fill:#000000"
         d="m 191.04,90.88 v -5.12 h 0.88629 c 0.77975,0 1.13555,0.402397 2.96,3.347627 l 2.07371,3.347628 0.0908,-3.347628 C 197.1409,85.786957 197.148,85.76 197.9308,85.76 H 198.72 V 90.88 96 l -0.88,-0.01024 c -0.76964,-0.009 -1.12079,-0.411143 -2.8,-3.207005 l -1.92,-3.196766 -0.0912,3.207006 L 192.93761,96 h -0.9488 -0.94881 z"
         id="path19" />
      <path
         style="fill:#000000"
         d="m 182.72378,94.835415 c -1.01619,-1.157372 -1.02184,-1.1831 -0.91315,-4.15324 0.0998,-2.727739 0.18291,-3.062146 0.95171,-3.830477 0.57956,-0.57921 1.3006,-0.893477 2.31135,-1.007403 1.35384,-0.152597 1.55752,-0.07708 2.59767,0.963062 L 188.8,87.936 v 3.096615 c 0,2.995909 -0.0304,3.127036 -0.93538,4.032 C 187.08154,95.847688 186.67009,96 185.33776,96 c -1.42978,0 -1.69534,-0.118316 -2.61398,-1.164585 z m 3.67743,-0.876729 c 0.8581,-0.627456 1.09438,-4.339901 0.34865,-5.478025 -0.57543,-0.878212 -2.1001,-1.10609 -2.68073,-0.400661 -0.92682,1.126035 -0.67485,5.700838 0.33653,6.109957 0.72126,0.29176 1.38555,0.214772 1.99555,-0.231271 z"
         id="path18" />
      <path
         style="fill:#000000"
         d="m 176.32,91.751544 v -4.248457 l -1.24872,0.119085 c -1.04188,0.09936 -1.28382,0.0085 -1.46065,-0.548681 -0.11657,-0.36727 -0.12215,-0.813053 -0.0124,-0.990627 0.11453,-0.18532 1.69106,-0.322864 3.70066,-0.322864 H 180.8 v 1.001617 c 0,0.997814 -0.005,1.001 -1.44,0.839308 l -1.44,-0.162309 V 91.719308 96 h -0.8 -0.8 z"
         id="path17" />
      <path
         style="fill:#000000"
         d="m 166.08,90.88 v -5.12 h 3.36 3.36 v 0.96 0.96 h -2.4 -2.4 v 1.28 1.28 h 2.08 c 2.00533,0 2.08,0.02872 2.08,0.8 0,0.771282 -0.0747,0.8 -2.08,0.8 H 168 v 1.28 1.28 h 2.4 c 2.34667,0 2.4,0.01778 2.4,0.8 V 96 h -3.36 -3.36 z"
         id="path16" />
      <path
         style="fill:#000000"
         d="m 157.12,90.88 v -5.12 h 2.25589 c 2.67911,0 3.9378,0.547781 4.41694,1.92225 0.35365,1.014483 0.0784,2.3029 -0.57872,2.709032 -0.22711,0.140357 -0.12429,0.494519 0.30026,1.034239 0.87763,1.115723 0.81182,2.407864 -0.18282,3.589927 C 162.52738,95.971152 162.42424,96 159.81155,96 H 157.12 Z m 4.736,3.136 c 0.50431,-0.50431 0.4936,-1.842216 -0.016,-1.999696 -0.22,-0.06799 -1.012,-0.193764 -1.76,-0.279507 L 158.72,91.5809 V 92.99045 94.4 h 1.376 c 0.7568,0 1.5488,-0.1728 1.76,-0.384 z m 0.20969,-4.690919 C 162.3971,88.280906 161.93183,87.68 160.79194,87.68 c -0.58278,0 -1.28737,-0.08741 -1.56577,-0.194236 -0.41093,-0.157688 -0.50617,0.05306 -0.50617,1.12 V 89.92 h 1.57844 c 1.25752,0 1.61682,-0.120953 1.76725,-0.594919 z"
         id="path15" />
      <path
         style="fill:#000000"
         d="m 142.72,90.88 v -5.12 l 0.88,9.13e-4 c 0.77442,8.03e-4 1.12442,0.403929 2.91724,3.36 1.12047,1.847498 2.05647,3.359391 2.08,3.359762 0.0235,3.72e-4 -0.002,-1.511628 -0.0578,-3.36 L 148.43882,85.76 H 149.41941 150.4 V 90.88 96 l -0.88,-2e-5 c -0.7723,-1.7e-5 -1.12476,-0.400637 -2.88,-3.273515 l -2,-3.273495 V 92.726485 96 h -0.96 -0.96 z"
         id="path14" />
      <path
         style="fill:#000000"
         d="m 134.4,90.88 v -5.12 h 3.2 3.2 v 0.96 0.96 h -2.24 -2.24 v 1.28 1.28 h 1.92 c 1.83467,0 1.92,0.03556 1.92,0.8 0,0.764444 -0.0853,0.8 -1.92,0.8 h -1.92 v 1.28 1.28 h 2.24 c 2.176,0 2.24,0.02286 2.24,0.8 V 96 h -3.2 -3.2 z"
         id="path13" />
      <path
         style="fill:#000000"
         d="m 123.2,90.88 v -5.12 h 0.92268 c 0.60147,0 0.98111,0.194951 1.09052,0.56 0.0923,0.308 0.66212,1.741805 1.26624,3.186232 l 1.09841,2.626233 1.27349,-3.106233 c 1.12583,-2.746059 1.37293,-3.117973 2.13108,-3.207487 L 131.84,85.71749 V 90.858745 96 h -0.99284 -0.99283 l 0.11287,-2.748363 0.11286,-2.748364 -0.92576,2.108364 C 128.40815,94.31095 128.08877,94.72 127.50814,94.72 c -0.58307,0 -0.87638,-0.381251 -1.53868,-2 l -0.81827,-2 -0.0156,2.64 L 125.12,96 h -0.96 -0.96 z"
         id="path12" />
      <path
         style="fill:#000000"
         d="M 114.85538,95.064615 C 113.95042,94.159651 113.92,94.028524 113.92,91.032615 V 87.936 l 1.12864,-1.128643 c 1.04015,-1.040143 1.24383,-1.115659 2.59767,-0.963062 1.01075,0.113926 1.73179,0.428193 2.31135,1.007403 0.7688,0.768331 0.85189,1.102738 0.95171,3.830477 0.10869,2.97014 0.10304,2.995868 -0.91315,4.15324 C 119.07758,95.881684 118.81202,96 117.38224,96 c -1.33233,0 -1.74378,-0.152312 -2.52686,-0.935385 z m 3.50046,-0.950553 c 0.928,-0.587953 1.13163,-4.955971 0.28129,-6.034062 -0.52214,-0.661993 -2.06581,-0.478565 -2.61898,0.311202 -0.76999,1.099314 -0.67887,4.548078 0.14185,5.368798 0.67905,0.679048 1.47925,0.808075 2.19584,0.354062 z"
         id="path11" />
      <path
         style="fill:#000000"
         d="m 105.9574,95.478178 c -1.24978,-0.87538 -1.6374,-2.34023 -1.6374,-6.1879 V 85.76 h 0.96 0.96 v 3.790404 c 0,3.265684 0.081,3.863718 0.5852,4.32 0.76772,0.694782 1.7466,0.672153 2.4052,-0.0556 0.42912,-0.474169 0.5296,-1.29379 0.5296,-4.32 V 85.76 h 0.98543 0.98543 l -0.10543,4.13995 c -0.10396,4.082346 -0.11851,4.153586 -1.0453,5.12 -0.78117,0.814569 -1.1879,0.98005 -2.4088,0.98005 -0.84013,0 -1.78784,-0.223375 -2.21393,-0.521822 z"
         id="path10" />
      <path
         style="fill:#000000"
         d="m 96.032856,95.334837 c -1.08012,-0.658488 -1.083088,-0.666827 -0.459315,-1.2906 0.582571,-0.582571 0.695541,-0.592519 1.567144,-0.138004 1.210545,0.631262 2.519876,0.627492 3.156455,-0.0091 1.08851,-1.088512 0.40577,-1.798714 -2.123274,-2.20867 -2.450238,-0.397181 -3.331378,-3.220192 -1.558481,-4.993088 1.073215,-1.073216 2.536064,-1.231669 4.354895,-0.471714 1.22062,0.510009 1.31587,0.732083 0.68439,1.595683 -0.34739,0.475087 -0.54878,0.515614 -1.09897,0.221162 -1.036353,-0.554642 -2.567649,-0.445595 -2.917308,0.207747 -0.493321,0.92178 0.139879,1.577815 1.756947,1.82031 C 101.39712,90.368758 102.4,91.387247 102.4,93.12 c 0,2.00481 -1.04178,2.880341 -3.425455,2.878804 -1.310905,-8.46e-4 -2.17323,-0.19548 -2.941689,-0.663967 z"
         id="path9" />
      <path
         style="fill:#000000"
         d="m 81.2,95.496968 c -0.951233,-0.516053 -1.123289,-1.136692 -0.466278,-1.681962 0.299235,-0.248343 0.821683,-0.196657 1.887969,0.186777 1.831375,0.658558 3.248743,0.217523 3.08016,-0.958439 -0.100023,-0.697716 -0.588153,-0.952978 -2.60941,-1.364565 C 79.456706,90.938437 80.103124,85.76 83.831276,85.76 c 1.487666,0 3.208724,0.755762 3.208724,1.409035 0,0.792376 -0.845597,1.234709 -1.594331,0.833999 -0.371382,-0.198758 -1.136587,-0.316751 -1.700455,-0.262206 -0.901429,0.0872 -1.025214,0.214014 -1.025214,1.050316 0,0.867589 0.118164,0.971316 1.345108,1.180771 1.881727,0.321235 2.642673,0.800681 3.132885,1.973924 0.554778,1.327771 0.279723,2.635115 -0.719829,3.421362 -0.987117,0.776467 -3.951758,0.849354 -5.278164,0.129767 z"
         id="path8" />
      <path
         style="fill:#000000"
         d="m 76.48,90.88 v -5.12 h 0.96 0.96 V 90.88 96 h -0.96 -0.96 z"
         id="path7" />
      <path
         style="fill:#000000"
         d="m 68.405048,95.066253 c -1.000655,-0.894082 -1.049764,-1.048531 -1.156074,-3.635894 -0.127639,-3.106477 0.335133,-4.396118 1.860551,-5.184942 1.725822,-0.892457 3.815276,-0.360069 4.804683,1.224223 0.594427,0.951829 0.804382,4.680217 0.342385,6.080083 -0.83995,2.545073 -3.832408,3.320621 -5.851545,1.51653 z M 72,93.76 c 0.851138,-0.851138 0.926326,-4.59322 0.110404,-5.494803 -0.708011,-0.782343 -2.232739,-0.762982 -2.659145,0.03377 -0.551626,1.030722 -0.41471,4.838431 0.198337,5.51584 C 70.339642,94.577295 71.202831,94.557169 72,93.76 Z"
         id="path6" />
      <path
         style="fill:#000000"
         d="m 59.653844,95.331098 c -0.594026,-0.656391 -0.593809,-0.677339 0.01157,-1.12 0.730311,-0.534017 1.027004,-0.564062 1.29459,-0.131098 0.34567,0.559305 1.385975,0.34532 1.901855,-0.391202 0.37937,-0.541627 0.498145,-1.571665 0.498145,-4.32 V 85.76 h 0.8 0.8 v 4.135448 c 0,3.982145 -0.03071,4.171946 -0.828446,5.12 C 63.420303,95.860722 63.087807,96 61.78115,96 60.643669,96 60.106269,95.831022 59.653844,95.331098 Z"
         id="path5" />
      <path
         style="fill:#000000"
         d="m 50.56,90.88 v -5.12 h 0.8 c 0.777143,0 0.8,0.064 0.8,2.24 v 2.24 h 1.76 1.76 V 88 85.76 h 0.96 0.96 V 90.88 96 h -0.96 -0.96 v -2.08 -2.08 h -1.76 -1.76 v 2.08 c 0,2.005333 -0.02872,2.08 -0.8,2.08 h -0.8 z"
         id="path4" />
      <path
         style="fill:#000000"
         d="m 42.172949,95.073308 c -0.965859,-0.862994 -1.045501,-1.092112 -1.158676,-3.333302 -0.06916,-1.369598 0.04507,-2.911396 0.265089,-3.578074 0.912003,-2.763394 4.836119,-3.18821 6.394846,-0.692292 0.594427,0.951829 0.804382,4.680217 0.342385,6.080083 -0.838242,2.539898 -3.83247,3.320569 -5.843644,1.523585 z M 45.76,93.76 C 46.276838,93.243162 46.4,92.693333 46.4,90.902857 46.4,88.392739 45.972824,87.68 44.468402,87.68 43.2313,87.68 42.88,88.430584 42.88,91.073766 c 0,3.063619 1.294867,4.271367 2.88,2.686234 z"
         id="path3" />
      <path
         style="fill:#000000"
         d="m 32.32,90.88 v -5.12 h 2.255891 c 2.410712,0 3.888793,0.525012 4.454623,1.582275 0.600248,1.121573 0.38385,2.784013 -0.49896,3.833173 -0.737135,0.876035 -1.019297,0.984552 -2.56,0.984552 H 34.24 V 94.08 96 h -0.96 -0.96 z m 4.937143,-0.822857 C 38.444481,88.869805 37.623058,87.68 35.616,87.68 H 34.24 v 1.44 1.44 h 1.257143 c 0.71619,0 1.473524,-0.216381 1.76,-0.502857 z"
         id="path2" />
      <path
         style="fill:#000000"
         d="M 0,48 V 0 h 144 144 v 48 48 h -13.44813 -13.44812 l 0.0881,-5.04 0.0881,-5.04 h 8.24012 8.24012 L 277.76012,48 277.76,10.08 H 144 10.24 v 37.84 37.84 h 8.32 8.32 V 90.88 96 H 13.44 0 Z"
         id="path1" />
    </g>
  </g>
</svg>
